<svg width="25" height="23" viewBox="0 0 25 23" fill="none" xmlns="http://www.w3.org/2000/svg">
<path d="M12.968 0.495998C14.1627 0.495998 15.2613 0.645332 16.264 0.943998C17.288 1.22133 18.3227 1.66933 19.368 2.288L20.104 1.68C20.616 1.27467 21.032 0.997332 21.352 0.848C21.6933 0.698666 22.0773 0.623999 22.504 0.623999C23.016 0.623999 23.4213 0.741332 23.72 0.976C24.0187 1.18933 24.168 1.50933 24.168 1.936C24.168 2.10667 24.136 2.288 24.072 2.48L22.728 6.896C22.5787 7.408 22.3867 7.77067 22.152 7.984C21.9387 8.19733 21.608 8.304 21.16 8.304C20.6907 8.304 20.2747 8.16533 19.912 7.888C19.5707 7.58933 19.0267 6.992 18.28 6.096C17.5333 5.24267 16.8507 4.64533 16.232 4.304C15.6347 3.94133 15.016 3.76 14.376 3.76C13.9067 3.76 13.512 3.92 13.192 4.24C12.872 4.53867 12.712 4.912 12.712 5.36C12.712 5.872 12.968 6.352 13.48 6.8C13.992 7.22667 14.792 7.77067 15.88 8.432C16.9893 9.09333 17.9067 9.69067 18.632 10.224C19.3573 10.7573 19.976 11.4187 20.488 12.208C21 12.9973 21.256 13.904 21.256 14.928C21.256 15.5893 21.1493 16.2507 20.936 16.912C20.424 18.6187 19.432 19.92 17.96 20.816C16.488 21.6907 14.7707 22.128 12.808 22.128C11.336 22.128 10.0987 21.9573 9.096 21.616C8.09333 21.2747 7.06933 20.6987 6.024 19.888L4.872 20.848C4.33867 21.296 3.90133 21.6053 3.56 21.776C3.21867 21.9253 2.83467 22 2.408 22C1.91733 22 1.52267 21.8827 1.224 21.648C0.946667 21.4133 0.808 21.0933 0.808 20.688C0.808 20.4747 0.850667 20.2507 0.936 20.016L2.504 15.248C2.67467 14.6933 2.90933 14.2987 3.208 14.064C3.50667 13.8293 3.89067 13.712 4.36 13.712C4.85067 13.712 5.288 13.8827 5.672 14.224C6.07733 14.5653 6.6 15.184 7.24 16.08C7.92267 17.0613 8.552 17.744 9.128 18.128C9.72533 18.512 10.4293 18.704 11.24 18.704C11.816 18.704 12.2533 18.6187 12.552 18.448C12.872 18.256 13.096 17.9573 13.224 17.552C13.2667 17.4453 13.288 17.2853 13.288 17.072C13.288 16.56 13.0427 16.0907 12.552 15.664C12.0613 15.2373 11.304 14.7253 10.28 14.128C9.192 13.4667 8.30667 12.88 7.624 12.368C6.94133 11.8347 6.344 11.1733 5.832 10.384C5.34133 9.59467 5.096 8.66667 5.096 7.6C5.096 6.85333 5.21333 6.11733 5.448 5.392C5.896 3.92 6.81333 2.736 8.2 1.84C9.58667 0.943998 11.176 0.495998 12.968 0.495998Z" fill="black"/>
</svg>
