<svg width="158" height="31" viewBox="0 0 158 31" fill="none" xmlns="http://www.w3.org/2000/svg">
<path d="M12.968 2.496C14.1627 2.496 15.2613 2.64533 16.264 2.944C17.288 3.22133 18.3227 3.66933 19.368 4.288L20.104 3.68C20.616 3.27467 21.032 2.99733 21.352 2.848C21.6933 2.69867 22.0773 2.624 22.504 2.624C23.016 2.624 23.4213 2.74133 23.72 2.976C24.0187 3.18933 24.168 3.50933 24.168 3.936C24.168 4.10667 24.136 4.288 24.072 4.48L22.728 8.896C22.5787 9.408 22.3867 9.77067 22.152 9.984C21.9387 10.1973 21.608 10.304 21.16 10.304C20.6907 10.304 20.2747 10.1653 19.912 9.888C19.5707 9.58933 19.0267 8.992 18.28 8.096C17.5333 7.24267 16.8507 6.64533 16.232 6.304C15.6347 5.94133 15.016 5.76 14.376 5.76C13.9067 5.76 13.512 5.92 13.192 6.24C12.872 6.53867 12.712 6.912 12.712 7.36C12.712 7.872 12.968 8.352 13.48 8.8C13.992 9.22667 14.792 9.77067 15.88 10.432C16.9893 11.0933 17.9067 11.6907 18.632 12.224C19.3573 12.7573 19.976 13.4187 20.488 14.208C21 14.9973 21.256 15.904 21.256 16.928C21.256 17.5893 21.1493 18.2507 20.936 18.912C20.424 20.6187 19.432 21.92 17.96 22.816C16.488 23.6907 14.7707 24.128 12.808 24.128C11.336 24.128 10.0987 23.9573 9.096 23.616C8.09333 23.2747 7.06933 22.6987 6.024 21.888L4.872 22.848C4.33867 23.296 3.90133 23.6053 3.56 23.776C3.21867 23.9253 2.83467 24 2.408 24C1.91733 24 1.52267 23.8827 1.224 23.648C0.946667 23.4133 0.808 23.0933 0.808 22.688C0.808 22.4747 0.850667 22.2507 0.936 22.016L2.504 17.248C2.67467 16.6933 2.90933 16.2987 3.208 16.064C3.50667 15.8293 3.89067 15.712 4.36 15.712C4.85067 15.712 5.288 15.8827 5.672 16.224C6.07733 16.5653 6.6 17.184 7.24 18.08C7.92267 19.0613 8.552 19.744 9.128 20.128C9.72533 20.512 10.4293 20.704 11.24 20.704C11.816 20.704 12.2533 20.6187 12.552 20.448C12.872 20.256 13.096 19.9573 13.224 19.552C13.2667 19.4453 13.288 19.2853 13.288 19.072C13.288 18.56 13.0427 18.0907 12.552 17.664C12.0613 17.2373 11.304 16.7253 10.28 16.128C9.192 15.4667 8.30667 14.88 7.624 14.368C6.94133 13.8347 6.344 13.1733 5.832 12.384C5.34133 11.5947 5.096 10.6667 5.096 9.6C5.096 8.85333 5.21333 8.11733 5.448 7.392C5.896 5.92 6.81333 4.736 8.2 3.84C9.58667 2.944 11.176 2.496 12.968 2.496ZM53.1105 11.616C53.1105 13.5147 52.4492 15.456 51.1265 17.44C49.8038 19.424 48.1292 21.0667 46.1025 22.368C44.0972 23.648 42.1238 24.288 40.1825 24.288C38.6465 24.288 37.3452 24.0213 36.2785 23.488C35.2118 22.9547 34.5185 22.1867 34.1985 21.184C33.4092 22.144 32.5345 22.8693 31.5745 23.36C30.6145 23.8507 29.6118 24.096 28.5665 24.096C27.1158 24.096 25.9318 23.744 25.0145 23.04C24.1185 22.3147 23.6705 21.2587 23.6705 19.872C23.6705 19.1467 23.7878 18.4 24.0225 17.632L25.8145 11.36C25.8572 11.1893 25.8785 11.0613 25.8785 10.976C25.8785 10.7627 25.8252 10.5813 25.7185 10.432C25.6118 10.2827 25.4625 10.1227 25.2705 9.952C24.9505 9.67467 24.7905 9.42933 24.7905 9.216C24.7692 8.91733 24.9505 8.59733 25.3345 8.256C25.7185 7.91467 26.2518 7.63733 26.9345 7.424C27.6385 7.18933 28.4278 7.072 29.3025 7.072C30.7318 7.072 31.8412 7.424 32.6305 8.128C33.4412 8.81067 33.8465 9.70667 33.8465 10.816C33.8465 11.3067 33.7612 11.84 33.5905 12.416L31.9585 17.856C31.8732 18.1547 31.8305 18.3573 31.8305 18.464C31.8305 18.7413 31.9052 18.9547 32.0545 19.104C32.2252 19.2533 32.4492 19.328 32.7265 19.328C33.1105 19.328 33.4305 19.2 33.6865 18.944C33.9638 18.6667 34.2305 18.2293 34.4865 17.632L36.3105 11.36C36.3532 11.1893 36.3745 11.0613 36.3745 10.976C36.3745 10.7627 36.3212 10.5813 36.2145 10.432C36.1078 10.2827 35.9585 10.1227 35.7665 9.952C35.4465 9.67467 35.2865 9.42933 35.2865 9.216C35.2652 8.91733 35.4465 8.59733 35.8305 8.256C36.2145 7.91467 36.7478 7.63733 37.4305 7.424C38.1345 7.18933 38.9238 7.072 39.7985 7.072C41.2492 7.072 42.3692 7.41333 43.1585 8.096C43.9478 8.77867 44.3425 9.68533 44.3425 10.816C44.3425 11.264 44.2572 11.7973 44.0865 12.416L42.0065 19.264C41.9638 19.3707 41.9425 19.5307 41.9425 19.744C41.9425 20.0213 42.0385 20.2347 42.2305 20.384C42.4225 20.5333 42.6892 20.608 43.0305 20.608C43.4998 20.608 44.0438 20.4053 44.6625 20C45.3025 19.5733 45.9212 18.976 46.5185 18.208C47.1372 17.4187 47.6385 16.4907 48.0225 15.424C47.1692 14.6773 46.5612 13.9413 46.1985 13.216C45.8572 12.4907 45.6865 11.744 45.6865 10.976C45.6865 9.888 45.9852 8.97067 46.5825 8.224C47.1798 7.456 48.0438 7.072 49.1745 7.072C50.3052 7.072 51.2438 7.47733 51.9905 8.288C52.7372 9.09867 53.1105 10.208 53.1105 11.616ZM64.1428 7.072C66.5961 7.072 68.5588 7.53067 70.0308 8.448C71.5028 9.344 72.2388 10.72 72.2388 12.576C72.2388 13.28 72.1108 14.08 71.8548 14.976L70.5428 19.392C70.5214 19.4773 70.5108 19.584 70.5108 19.712C70.5108 20.0533 70.6494 20.224 70.9268 20.224C71.1828 20.224 71.3961 20.1173 71.5668 19.904C71.7588 19.6693 71.8868 19.552 71.9508 19.552C72.0574 19.552 72.1428 19.6267 72.2068 19.776C72.2921 19.9253 72.3348 20.096 72.3348 20.288C72.3561 20.864 72.1321 21.4507 71.6628 22.048C71.2148 22.6453 70.6068 23.136 69.8388 23.52C69.0708 23.904 68.2281 24.096 67.3108 24.096C66.2014 24.096 65.2521 23.8933 64.4628 23.488C63.6734 23.0827 63.1294 22.4853 62.8308 21.696C62.1908 22.464 61.4334 23.0613 60.5588 23.488C59.6841 23.8933 58.7454 24.096 57.7428 24.096C56.6121 24.096 55.6628 23.8827 54.8948 23.456C54.1268 23.008 53.5508 22.4427 53.1668 21.76C52.8041 21.056 52.6227 20.32 52.6227 19.552C52.6227 19.2107 52.6547 18.88 52.7188 18.56C53.0601 17.088 53.7961 15.9787 54.9268 15.232C56.0788 14.4853 57.4441 14.112 59.0228 14.112C60.7934 14.112 62.5321 14.3893 64.2388 14.944L65.0388 12.832C65.3161 11.936 65.4548 11.2427 65.4548 10.752C65.4334 10.24 65.2628 9.856 64.9428 9.6C64.6228 9.344 64.1321 9.216 63.4708 9.216C63.5988 9.55733 63.6628 9.90933 63.6628 10.272C63.6628 11.0613 63.3641 11.744 62.7668 12.32C62.1694 12.896 61.3161 13.184 60.2068 13.184C59.1614 13.184 58.3401 12.96 57.7428 12.512C57.1668 12.0427 56.8788 11.4667 56.8788 10.784C56.8788 9.71733 57.4761 8.832 58.6708 8.128C59.8654 7.424 61.6894 7.072 64.1428 7.072ZM62.3508 16.768C61.7534 16.768 61.2628 17.0027 60.8788 17.472C60.5161 17.92 60.3348 18.4107 60.3348 18.944C60.3348 19.2853 60.4094 19.5627 60.5588 19.776C60.7294 19.9893 60.9641 20.096 61.2628 20.096C61.5401 20.096 61.8388 19.9893 62.1588 19.776C62.5001 19.5413 62.7454 19.2 62.8948 18.752L63.5668 16.864C63.2041 16.8 62.7988 16.768 62.3508 16.768ZM90.3923 6.944C92.0349 6.944 93.3256 7.488 94.2643 8.576C95.2029 9.664 95.6723 11.1467 95.6723 13.024C95.6723 14.0267 95.5336 15.0827 95.2563 16.192C94.6163 18.8373 93.4216 20.8533 91.6723 22.24C89.9229 23.6053 87.8963 24.288 85.5923 24.288C84.1203 24.288 82.8403 23.9787 81.7523 23.36L80.7283 26.784C80.6429 27.0187 80.6003 27.2427 80.6003 27.456C80.6003 27.6907 80.6536 27.8827 80.7603 28.032C80.8669 28.2027 81.0056 28.3627 81.1763 28.512C81.3469 28.6827 81.4536 28.8213 81.4963 28.928C81.5603 29.0347 81.5709 29.1627 81.5283 29.312C81.4429 29.5893 81.2403 29.7813 80.9203 29.888C80.6003 30.016 80.1096 30.08 79.4483 30.08H72.1202C71.5656 30.08 71.1709 29.984 70.9362 29.792C70.6802 29.6213 70.6056 29.3973 70.7122 29.12C70.7549 28.9493 70.8296 28.8107 70.9362 28.704C71.0429 28.5973 71.1922 28.5013 71.3842 28.416C71.7042 28.2027 71.9602 27.9787 72.1522 27.744C72.3442 27.5307 72.5149 27.1787 72.6642 26.688L77.3363 11.36C77.4003 11.168 77.4323 11.008 77.4323 10.88C77.4323 10.6453 77.3789 10.464 77.2723 10.336C77.1656 10.1867 77.0056 10.0373 76.7923 9.888C76.5789 9.71733 76.4296 9.568 76.3443 9.44C76.2589 9.312 76.2483 9.14133 76.3123 8.928C76.4403 8.43733 77.1123 8.01067 78.3283 7.648C79.5443 7.264 80.8136 7.072 82.1363 7.072C83.0749 7.072 83.8429 7.30667 84.4403 7.776C85.0589 8.24533 85.4109 8.896 85.4963 9.728C86.9469 7.872 88.5789 6.944 90.3923 6.944ZM86.6803 16.448C87.1923 14.5493 87.4483 13.2373 87.4483 12.512C87.4483 12.064 87.3736 11.776 87.2243 11.648C87.0963 11.4987 86.9043 11.424 86.6483 11.424C86.4563 11.424 86.2109 11.52 85.9123 11.712C85.6136 11.8827 85.3149 12.1813 85.0163 12.608L82.4883 20.992C82.7443 21.248 83.0536 21.376 83.4163 21.376C83.9923 21.376 84.5363 21.056 85.0483 20.416C85.5816 19.7547 86.1256 18.432 86.6803 16.448ZM106.309 6.784C108.08 6.784 109.605 6.944 110.885 7.264C112.187 7.584 113.179 8.032 113.861 8.608C114.565 9.184 114.917 9.83467 114.917 10.56C114.917 11.3067 114.619 11.9147 114.021 12.384C113.445 12.8533 112.635 13.088 111.589 13.088C110.523 13.088 109.616 12.8213 108.869 12.288C108.144 11.7547 107.781 11.0827 107.781 10.272C107.781 9.99467 107.824 9.728 107.909 9.472C107.525 9.36533 107.184 9.312 106.885 9.312C106.352 9.312 105.904 9.44 105.541 9.696C105.2 9.952 105.04 10.3147 105.061 10.784C105.061 11.3387 105.339 11.808 105.893 12.192C106.448 12.576 107.344 13.056 108.581 13.632C109.648 14.1013 110.523 14.5387 111.205 14.944C111.909 15.328 112.496 15.8187 112.965 16.416C113.456 17.0133 113.701 17.7173 113.701 18.528C113.701 18.6987 113.659 19.0187 113.573 19.488C113.232 20.9173 112.283 22.048 110.725 22.88C109.168 23.712 107.12 24.128 104.581 24.128C101.723 24.128 99.4506 23.744 97.7653 22.976C96.1013 22.208 95.2692 21.152 95.2692 19.808C95.2692 18.8907 95.5466 18.1973 96.1013 17.728C96.6559 17.2587 97.3919 17.024 98.3093 17.024C99.3759 17.024 100.283 17.3547 101.029 18.016C101.797 18.6773 102.181 19.52 102.181 20.544C102.181 20.8213 102.149 21.1093 102.085 21.408C102.597 21.536 103.088 21.6 103.557 21.6C104.112 21.6 104.571 21.4507 104.933 21.152C105.296 20.8533 105.477 20.4373 105.477 19.904C105.456 19.4133 105.211 18.9973 104.741 18.656C104.272 18.2933 103.525 17.8667 102.501 17.376C101.541 16.928 100.752 16.512 100.133 16.128C99.5146 15.7227 98.9813 15.2213 98.5333 14.624C98.1066 14.0267 97.8932 13.3227 97.8932 12.512C97.8932 10.7627 98.6186 9.376 100.069 8.352C101.541 7.30667 103.621 6.784 106.309 6.784ZM134.366 19.584C134.323 19.6693 134.302 19.7973 134.302 19.968C134.302 20.1173 134.334 20.2347 134.398 20.32C134.483 20.4053 134.59 20.448 134.718 20.448C134.974 20.448 135.187 20.3413 135.358 20.128C135.55 19.8933 135.678 19.776 135.742 19.776C135.849 19.776 135.934 19.8507 135.998 20C136.062 20.128 136.094 20.288 136.094 20.48C136.115 21.0987 135.913 21.7067 135.486 22.304C135.059 22.88 134.43 23.36 133.598 23.744C132.787 24.1067 131.806 24.288 130.654 24.288C129.246 24.288 128.126 23.968 127.294 23.328C126.462 22.6667 126.035 21.792 126.014 20.704C126.014 19.9147 126.206 19.0293 126.59 18.048L128.35 13.44C128.457 13.1627 128.51 12.9387 128.51 12.768C128.51 12.4907 128.414 12.2773 128.222 12.128C128.051 11.9573 127.838 11.872 127.582 11.872C127.177 11.872 126.761 12.064 126.334 12.448C125.929 12.8107 125.598 13.408 125.342 14.24V14.176L123.326 20.672C123.262 20.928 123.23 21.152 123.23 21.344C123.23 21.6213 123.283 21.8453 123.39 22.016C123.497 22.1653 123.646 22.3147 123.838 22.464C123.987 22.6133 124.094 22.7413 124.158 22.848C124.222 22.9333 124.233 23.0507 124.19 23.2C124.083 23.4773 123.87 23.68 123.55 23.808C123.23 23.936 122.739 24 122.078 24H114.782C114.227 24 113.822 23.9147 113.566 23.744C113.31 23.552 113.225 23.3067 113.31 23.008C113.395 22.752 113.619 22.528 113.982 22.336C114.302 22.1653 114.569 21.9627 114.782 21.728C114.995 21.4933 115.177 21.12 115.326 20.608L120.19 4.64C120.254 4.448 120.286 4.288 120.286 4.16C120.286 3.92533 120.222 3.73333 120.094 3.584C119.987 3.43467 119.838 3.28533 119.646 3.136C119.433 2.96533 119.273 2.816 119.166 2.688C119.081 2.56 119.07 2.38933 119.134 2.176C119.262 1.68533 119.934 1.25867 121.15 0.895998C122.366 0.533332 123.635 0.351999 124.958 0.351999C126.195 0.351999 127.102 0.586666 127.678 1.056C128.275 1.52533 128.574 2.16533 128.574 2.976C128.574 3.44533 128.499 3.904 128.35 4.352L126.622 9.984C127.454 8.896 128.329 8.13867 129.246 7.712C130.185 7.28533 131.198 7.072 132.286 7.072C133.587 7.072 134.633 7.46667 135.422 8.256C136.233 9.04533 136.638 10.0693 136.638 11.328C136.638 11.9893 136.531 12.64 136.318 13.28L134.366 19.584ZM148.893 7.072C151.346 7.072 153.309 7.53067 154.781 8.448C156.253 9.344 156.989 10.72 156.989 12.576C156.989 13.28 156.861 14.08 156.605 14.976L155.293 19.392C155.271 19.4773 155.261 19.584 155.261 19.712C155.261 20.0533 155.399 20.224 155.677 20.224C155.933 20.224 156.146 20.1173 156.317 19.904C156.509 19.6693 156.637 19.552 156.701 19.552C156.807 19.552 156.893 19.6267 156.957 19.776C157.042 19.9253 157.085 20.096 157.085 20.288C157.106 20.864 156.882 21.4507 156.413 22.048C155.965 22.6453 155.357 23.136 154.589 23.52C153.821 23.904 152.978 24.096 152.061 24.096C150.951 24.096 150.002 23.8933 149.213 23.488C148.423 23.0827 147.879 22.4853 147.581 21.696C146.941 22.464 146.183 23.0613 145.309 23.488C144.434 23.8933 143.495 24.096 142.493 24.096C141.362 24.096 140.413 23.8827 139.645 23.456C138.877 23.008 138.301 22.4427 137.917 21.76C137.554 21.056 137.373 20.32 137.373 19.552C137.373 19.2107 137.405 18.88 137.469 18.56C137.81 17.088 138.546 15.9787 139.677 15.232C140.829 14.4853 142.194 14.112 143.773 14.112C145.543 14.112 147.282 14.3893 148.989 14.944L149.789 12.832C150.066 11.936 150.205 11.2427 150.205 10.752C150.183 10.24 150.013 9.856 149.693 9.6C149.373 9.344 148.882 9.216 148.221 9.216C148.349 9.55733 148.413 9.90933 148.413 10.272C148.413 11.0613 148.114 11.744 147.517 12.32C146.919 12.896 146.066 13.184 144.957 13.184C143.911 13.184 143.09 12.96 142.493 12.512C141.917 12.0427 141.629 11.4667 141.629 10.784C141.629 9.71733 142.226 8.832 143.421 8.128C144.615 7.424 146.439 7.072 148.893 7.072ZM147.101 16.768C146.503 16.768 146.013 17.0027 145.629 17.472C145.266 17.92 145.085 18.4107 145.085 18.944C145.085 19.2853 145.159 19.5627 145.309 19.776C145.479 19.9893 145.714 20.096 146.013 20.096C146.29 20.096 146.589 19.9893 146.909 19.776C147.25 19.5413 147.495 19.2 147.645 18.752L148.317 16.864C147.954 16.8 147.549 16.768 147.101 16.768Z" fill="black"/>
</svg>
